<svg xmlns="http://www.w3.org/2000/svg" viewBox="0 0 511.99 521.35"><g id="Capa_2" data-name="Capa 2"><g id="Capa_1-2" data-name="Capa 1"><path d="M416.7,229.07l-121.34,32.1-16.83,40.55-7.94,12.6c4.13,1.51,8.49,3.3,12.69,5.08s8.43,3.71,12.56,5.73a130.77,130.77,0,0,1,12,6.61,47.28,47.28,0,0,1,5.51,4c1.68,1.48,3.36,3.05,4,5.34.35-2.4-.67-4.9-1.72-7.07a52.72,52.72,0,0,0-3.79-6.31,138.13,138.13,0,0,0-9-11.5c-1.54-1.8-3.11-3.57-4.71-5.33l1.07.45,12.86-31,66.74-17.65-66.46,167L49.28,495,25.42,452.29,151,143l28.59-17.82,47,43.16-14.23,31.35-61.23,17.2,0-.28-.05.31-.47.13.07,2.47L121,413.85,117.14,437l28.72-39.82,1.28-1.77,1.51-2c1-1.33,2.09-2.66,3.19-4,2.2-2.63,4.53-5.19,6.94-7.65A143.8,143.8,0,0,1,174.17,368a123.53,123.53,0,0,1,35.88-19.8,114.19,114.19,0,0,1,41.22-6c14.32.4,28.8,3.46,43.35,7.66a118.33,118.33,0,0,0-41.82-19,107.77,107.77,0,0,0-47.59-.2A115.88,115.88,0,0,0,177,340.93l-3.15-106.74,54.86-15.41,5-10.92,0,.06L238.59,197l15.53-34.22-54.51-50.1.19-.05-11.31-10.17-6.24-5.73-.08,0-2.38-2.14-46.38,32.53-.74.46,0,.08-6.74,4.73L0,453.84l37.87,67.51h0L302,455.76,329.21,449Z" fill="#fff" fill-rule="evenodd"/><polygon points="472.69 34.88 411.05 182.14 343.74 200.31 360.77 158.13 264.35 185.16 253.32 212.04 322.56 192.63 305.67 234.17 427.75 201.23 511.99 0 202.28 88.21 222.29 106.19 472.69 34.88" fill="#fff" fill-rule="evenodd"/></g></g></svg>