<svg xmlns="http://www.w3.org/2000/svg" viewBox="0 0 452.92 521.35"><g id="Capa_2" data-name="Capa 2"><g id="Capa_1-2" data-name="Capa 1"><path d="M358.43,139.15l9.32,115.36h-9.32q-14.1-43.12-36.45-65Q289.79,158,239.24,158q-68.93,0-104.84,55.26-30.06,46.64-30.06,111,0,52.29,20,95.42t52.29,63.2Q208.9,503,243,503a144.65,144.65,0,0,0,38.58-5.12,152.65,152.65,0,0,0,35.92-15.09V377.15q0-27.5-4.13-36a27.94,27.94,0,0,0-12.77-12.94q-8.64-4.46-30.46-4.45V313.54H409.78v10.24h-6.65q-20.75,0-28.47,14-5.32,10-5.32,39.35V489a268.75,268.75,0,0,1-60.4,24.53q-29.79,7.8-66.25,7.81-104.56,0-158.84-67.92Q43.14,402.49,43.14,335.91q0-48.24,22.89-92.45,27.14-52.56,74.49-80.86,39.64-23.46,93.66-23.45A182.65,182.65,0,0,1,270,142.38q16.1,3.24,45.64,14.29,14.89,5.66,19.95,5.66t8.65-4.72q3.58-4.71,4.39-18.46Z" fill="#fff"/><polygon points="226.46 0 452.92 129.05 226.46 64.52 0 129.05 226.46 0" fill="#fff"/></g></g></svg>