<svg xmlns="http://www.w3.org/2000/svg" viewBox="0 0 1416.37 1629.83"><g style="isolation:isolate"><g id="Capa_2" data-name="Capa 2"><g id="Layer_1" data-name="Layer 1"><path d="M856.82,1125.08a41.86,41.86,0,0,1,0-72.49l193.86-111.93a48.19,48.19,0,0,0,0-83.46L998.37,827a92.42,92.42,0,0,0-92.16,0l-8.14-14.1a108.83,108.83,0,0,1,108.44,0l52.3,30.2a64.46,64.46,0,0,1,0,111.65L865,1066.68a25.57,25.57,0,0,0,0,44.3Z" fill="#394754"/><path d="M1202.62,1015.6l-97.89-56.52a39.11,39.11,0,0,1,0-67.74,22.82,22.82,0,0,0,0-39.53,80.07,80.07,0,0,0-79.8,0L883.88,933.25l-8.13-14.09,141-81.44a96.37,96.37,0,0,1,96.07,0,39.1,39.1,0,0,1,0,67.72,22.82,22.82,0,0,0,0,39.54l97.89,56.52Z" fill="#5c6d7f"/><polygon points="922.3 723.64 909.74 772.05 481.32 1019.41 397.48 1026.66 4.68 799.88 529.51 496.86 922.3 723.64" fill="#f7f5ed"/><polygon points="569.25 561.51 489.77 561.51 116.66 776.93 116.66 822.82 357.74 962 437.22 962 810.32 746.59 810.32 700.7 569.25 561.51" fill="#394754"/><polygon points="922.3 933.54 909.74 981.92 481.32 1229.27 397.48 1236.55 397.48 1026.66 481.31 1019.38 909.74 772.05 922.3 723.64 922.3 933.54" fill="#bfb69d"/><path d="M859.68,840.29a4.06,4.06,0,0,0-4.07,0L701.72,929.14a4,4,0,0,0-2,3.52v15.63a4.07,4.07,0,0,0,4.07,4.07,4,4,0,0,0,2-.55L859.68,863a4.09,4.09,0,0,0,2-3.52V843.81A4.07,4.07,0,0,0,859.68,840.29Z" fill="#8c8673"/><polygon points="481.31 1019.38 481.32 1229.27 397.48 1236.55 397.48 1026.66 481.31 1019.38" fill="#ded9cc"/><polygon points="857.64 859.46 703.76 948.3 703.76 932.66 857.64 843.82 857.64 859.46" fill="#5c6d7f"/><polygon points="584.11 1063.86 481.32 1123.21 397.48 1130.49 397.48 1116.59 481.32 1109.3 584.11 1049.96 584.11 1063.86" fill="#2c3945"/><polygon points="584.12 1091.66 481.32 1151.01 397.48 1158.3 397.48 1144.39 481.32 1137.11 584.11 1077.76 584.12 1091.66" fill="#2c3945"/><polygon points="584.12 1119.47 481.32 1178.82 397.48 1186.1 397.48 1172.2 481.32 1164.91 584.12 1105.57 584.12 1119.47" fill="#2c3945"/><polygon points="792.07 677.35 564.36 545.87 494.65 545.87 134.91 753.57 134.91 778.39 362.63 909.87 432.33 909.87 792.07 702.17 792.07 677.35" fill="#5c6d7f"/><polygon points="362.63 909.87 357.74 962 437.22 962 432.33 909.87 362.63 909.87" fill="#2c3945"/><polygon points="134.91 778.39 116.66 822.82 357.74 962 362.63 909.87 134.91 778.39" fill="#394754"/><polygon points="397.48 1026.66 4.68 799.91 4.69 1009.8 397.48 1236.55 397.48 1026.66" fill="#ece8de"/><polygon points="397.48 1116.59 294.68 1057.24 294.68 1071.14 397.48 1130.49 397.48 1116.59" fill="#5c6d7f"/><polygon points="294.68 1085.05 294.68 1098.95 397.48 1158.3 397.48 1144.39 294.68 1085.05" fill="#5c6d7f"/><polygon points="294.68 1112.85 294.68 1126.75 397.48 1186.1 397.48 1172.2 294.68 1112.85" fill="#5c6d7f"/><polygon points="134.91 753.57 116.66 776.93 116.66 822.82 134.91 778.39 134.91 753.57" fill="#40505f"/><polygon points="792.07 702.17 810.32 746.59 810.32 700.7 792.07 677.35 792.07 702.17" fill="#2c3945"/><polygon points="922.3 723.64 909.74 772.05 909.74 968.97 909.74 981.92 922.3 933.54 922.3 723.64" fill="#a6a08f"/><polygon points="436.99 9.3 0 261.86 133.42 252.55 404.86 409.38 841.85 156.82 570.42 0 436.99 9.3" fill="#f7f5ed"/><polygon points="841.85 156.82 404.86 409.38 404.87 885.34 841.85 632.79 841.85 156.82" fill="#bfb69d"/><polygon points="404.86 885.34 132.48 727.97 0 488.61 0 261.86 133.42 252.55 404.86 409.38 404.86 885.34" fill="#ded9cc"/><polygon points="451.02 805.37 795.71 606.16 795.7 236.8 451.01 436.01 451.02 805.37" fill="#ded9cc"/><polygon points="748.8 578.98 795.71 606.09 451.02 805.37 451.02 751.29 748.8 579.19 748.8 578.98" fill="#f7f5ed"/><polygon points="748.79 263.91 451.01 436.01 451.02 751.29 748.8 579.19 748.79 263.91" fill="#00424e"/><polygon points="570.98 0 304.68 102.9 133.99 252.55 404.86 409.38 841.85 156.82 570.98 0" fill="#ece8de"/><path d="M32.36,336c0,2.23-1.57,3.14-3.5,2a7.73,7.73,0,0,1-3.5-6.06c0-2.23,1.57-3.14,3.5-2A7.75,7.75,0,0,1,32.36,336Z" fill="#bfb69d"/><path d="M32.36,349.92c0,2.23-1.57,3.14-3.5,2a7.75,7.75,0,0,1-3.5-6.06c0-2.24,1.57-3.14,3.5-2A7.73,7.73,0,0,1,32.36,349.92Z" fill="#bfb69d"/><path d="M32.36,363.86c0,2.23-1.57,3.13-3.5,2a7.75,7.75,0,0,1-3.5-6.07c0-2.23,1.57-3.13,3.5-2A7.75,7.75,0,0,1,32.36,363.86Z" fill="#bfb69d"/><path d="M32.36,377.79c0,2.23-1.57,3.14-3.5,2a7.73,7.73,0,0,1-3.5-6.06c0-2.23,1.57-3.14,3.5-2A7.75,7.75,0,0,1,32.36,377.79Z" fill="#bfb69d"/><path d="M32.36,391.73c0,2.23-1.57,3.14-3.5,2a7.75,7.75,0,0,1-3.5-6.06c0-2.23,1.57-3.14,3.5-2A7.73,7.73,0,0,1,32.36,391.73Z" fill="#bfb69d"/><path d="M32.36,405.67c0,2.23-1.57,3.13-3.5,2a7.75,7.75,0,0,1-3.5-6.07c0-2.23,1.57-3.13,3.5-2A7.75,7.75,0,0,1,32.36,405.67Z" fill="#bfb69d"/><path d="M32.36,419.6c0,2.23-1.57,3.14-3.5,2a7.73,7.73,0,0,1-3.5-6.06c0-2.23,1.57-3.14,3.5-2A7.75,7.75,0,0,1,32.36,419.6Z" fill="#bfb69d"/><path d="M32.36,433.54c0,2.23-1.57,3.14-3.5,2a7.73,7.73,0,0,1-3.5-6.06c0-2.23,1.57-3.14,3.5-2A7.73,7.73,0,0,1,32.36,433.54Z" fill="#bfb69d"/><path d="M32.36,447.48c0,2.23-1.57,3.13-3.5,2a7.75,7.75,0,0,1-3.5-6.06c0-2.24,1.57-3.14,3.5-2A7.75,7.75,0,0,1,32.36,447.48Z" fill="#bfb69d"/><path d="M44.85,343.19c0,2.24-1.56,3.14-3.5,2a7.73,7.73,0,0,1-3.5-6.06c0-2.23,1.57-3.13,3.5-2A7.72,7.72,0,0,1,44.85,343.19Z" fill="#bfb69d"/><path d="M44.85,357.13c0,2.23-1.56,3.14-3.5,2a7.73,7.73,0,0,1-3.5-6.06c0-2.23,1.57-3.14,3.5-2A7.71,7.71,0,0,1,44.85,357.13Z" fill="#bfb69d"/><path d="M44.85,371.07c0,2.23-1.56,3.14-3.5,2a7.75,7.75,0,0,1-3.5-6.06c0-2.24,1.57-3.14,3.5-2A7.71,7.71,0,0,1,44.85,371.07Z" fill="#bfb69d"/><path d="M44.85,385c0,2.24-1.56,3.14-3.5,2a7.75,7.75,0,0,1-3.5-6.07c0-2.23,1.57-3.13,3.5-2A7.72,7.72,0,0,1,44.85,385Z" fill="#bfb69d"/><path d="M44.85,398.94c0,2.23-1.56,3.14-3.5,2a7.73,7.73,0,0,1-3.5-6.06c0-2.23,1.57-3.14,3.5-2A7.72,7.72,0,0,1,44.85,398.94Z" fill="#bfb69d"/><path d="M44.85,412.88c0,2.23-1.56,3.14-3.5,2a7.75,7.75,0,0,1-3.5-6.06c0-2.24,1.57-3.14,3.5-2A7.71,7.71,0,0,1,44.85,412.88Z" fill="#bfb69d"/><path d="M44.85,426.81c0,2.24-1.56,3.14-3.5,2a7.75,7.75,0,0,1-3.5-6.07c0-2.23,1.57-3.13,3.5-2A7.72,7.72,0,0,1,44.85,426.81Z" fill="#bfb69d"/><path d="M44.85,440.75c0,2.23-1.56,3.14-3.5,2a7.73,7.73,0,0,1-3.5-6.06c0-2.23,1.57-3.14,3.5-2A7.72,7.72,0,0,1,44.85,440.75Z" fill="#bfb69d"/><path d="M44.85,454.69c0,2.23-1.56,3.14-3.5,2a7.75,7.75,0,0,1-3.5-6.06c0-2.23,1.57-3.14,3.5-2A7.71,7.71,0,0,1,44.85,454.69Z" fill="#bfb69d"/><path d="M57.35,350.41c0,2.23-1.57,3.13-3.5,2a7.73,7.73,0,0,1-3.5-6.07c0-2.23,1.56-3.13,3.5-2A7.75,7.75,0,0,1,57.35,350.41Z" fill="#bfb69d"/><path d="M57.35,364.34c0,2.23-1.57,3.14-3.5,2a7.71,7.71,0,0,1-3.5-6.06c0-2.23,1.56-3.14,3.5-2A7.75,7.75,0,0,1,57.35,364.34Z" fill="#bfb69d"/><path d="M57.35,378.28c0,2.23-1.57,3.14-3.5,2a7.71,7.71,0,0,1-3.5-6.06c0-2.23,1.56-3.14,3.5-2A7.73,7.73,0,0,1,57.35,378.28Z" fill="#bfb69d"/><path d="M57.35,392.22c0,2.23-1.57,3.13-3.5,2a7.72,7.72,0,0,1-3.5-6.06c0-2.24,1.56-3.14,3.5-2A7.75,7.75,0,0,1,57.35,392.22Z" fill="#bfb69d"/><path d="M57.35,406.15c0,2.24-1.57,3.14-3.5,2a7.71,7.71,0,0,1-3.5-6.06c0-2.23,1.56-3.13,3.5-2A7.75,7.75,0,0,1,57.35,406.15Z" fill="#bfb69d"/><path d="M57.35,420.09c0,2.23-1.57,3.14-3.5,2a7.71,7.71,0,0,1-3.5-6.06c0-2.23,1.56-3.14,3.5-2A7.73,7.73,0,0,1,57.35,420.09Z" fill="#bfb69d"/><path d="M57.35,434c0,2.23-1.57,3.13-3.5,2a7.72,7.72,0,0,1-3.5-6.06c0-2.24,1.56-3.14,3.5-2A7.77,7.77,0,0,1,57.35,434Z" fill="#bfb69d"/><path d="M57.35,448c0,2.24-1.57,3.14-3.5,2a7.73,7.73,0,0,1-3.5-6.07c0-2.23,1.56-3.13,3.5-2A7.75,7.75,0,0,1,57.35,448Z" fill="#bfb69d"/><path d="M57.35,461.9c0,2.23-1.57,3.14-3.5,2a7.72,7.72,0,0,1-3.51-6.06c0-2.23,1.57-3.14,3.51-2A7.75,7.75,0,0,1,57.35,461.9Z" fill="#bfb69d"/><path d="M69.84,357.62c0,2.23-1.57,3.14-3.5,2a7.75,7.75,0,0,1-3.5-6.06c0-2.24,1.57-3.14,3.5-2A7.73,7.73,0,0,1,69.84,357.62Z" fill="#bfb69d"/><path d="M69.84,371.55c0,2.24-1.57,3.14-3.5,2a7.75,7.75,0,0,1-3.5-6.07c0-2.23,1.57-3.13,3.5-2A7.75,7.75,0,0,1,69.84,371.55Z" fill="#bfb69d"/><path d="M69.84,385.49c0,2.23-1.57,3.14-3.5,2a7.73,7.73,0,0,1-3.5-6.06c0-2.23,1.57-3.14,3.5-2A7.75,7.75,0,0,1,69.84,385.49Z" fill="#bfb69d"/><path d="M69.84,399.43c0,2.23-1.57,3.14-3.5,2a7.72,7.72,0,0,1-3.5-6.06c0-2.23,1.57-3.14,3.5-2A7.73,7.73,0,0,1,69.84,399.43Z" fill="#bfb69d"/><path d="M69.84,413.37c0,2.23-1.57,3.13-3.5,2a7.73,7.73,0,0,1-3.5-6.07c0-2.23,1.56-3.13,3.5-2A7.75,7.75,0,0,1,69.84,413.37Z" fill="#bfb69d"/><path d="M69.84,427.3c0,2.23-1.57,3.14-3.5,2a7.71,7.71,0,0,1-3.5-6.06c0-2.23,1.56-3.14,3.5-2A7.75,7.75,0,0,1,69.84,427.3Z" fill="#bfb69d"/><path d="M69.84,441.24c0,2.23-1.57,3.14-3.5,2a7.72,7.72,0,0,1-3.5-6.06c0-2.23,1.56-3.14,3.5-2A7.73,7.73,0,0,1,69.84,441.24Z" fill="#bfb69d"/><path d="M69.84,455.18c0,2.23-1.57,3.13-3.5,2a7.72,7.72,0,0,1-3.5-6.06c0-2.24,1.56-3.14,3.5-2A7.75,7.75,0,0,1,69.84,455.18Z" fill="#bfb69d"/><path d="M69.84,469.11c0,2.24-1.57,3.14-3.5,2a7.71,7.71,0,0,1-3.5-6.06c0-2.23,1.56-3.13,3.5-2A7.75,7.75,0,0,1,69.84,469.11Z" fill="#bfb69d"/><path d="M82.33,364.83c0,2.23-1.57,3.14-3.5,2a7.73,7.73,0,0,1-3.5-6.06c0-2.23,1.57-3.14,3.5-2A7.73,7.73,0,0,1,82.33,364.83Z" fill="#bfb69d"/><path d="M82.33,378.77c0,2.23-1.57,3.13-3.5,2a7.75,7.75,0,0,1-3.5-6.06c0-2.24,1.57-3.14,3.5-2A7.77,7.77,0,0,1,82.33,378.77Z" fill="#bfb69d"/><path d="M82.33,392.7c0,2.24-1.57,3.14-3.5,2a7.77,7.77,0,0,1-3.5-6.07c0-2.23,1.57-3.13,3.5-2A7.75,7.75,0,0,1,82.33,392.7Z" fill="#bfb69d"/><path d="M82.33,406.64c0,2.23-1.57,3.14-3.5,2a7.73,7.73,0,0,1-3.5-6.06c0-2.23,1.57-3.14,3.5-2A7.75,7.75,0,0,1,82.33,406.64Z" fill="#bfb69d"/><path d="M82.33,420.58c0,2.23-1.57,3.13-3.5,2a7.75,7.75,0,0,1-3.5-6.06c0-2.24,1.57-3.14,3.5-2A7.73,7.73,0,0,1,82.33,420.58Z" fill="#bfb69d"/><path d="M82.33,434.51c0,2.24-1.57,3.14-3.5,2a7.75,7.75,0,0,1-3.5-6.07c0-2.23,1.57-3.13,3.5-2A7.75,7.75,0,0,1,82.33,434.51Z" fill="#bfb69d"/><path d="M82.33,448.45c0,2.23-1.57,3.14-3.5,2a7.73,7.73,0,0,1-3.5-6.06c0-2.23,1.57-3.14,3.5-2A7.75,7.75,0,0,1,82.33,448.45Z" fill="#bfb69d"/><path d="M82.33,462.39c0,2.23-1.57,3.14-3.5,2a7.75,7.75,0,0,1-3.5-6.06c0-2.23,1.57-3.14,3.5-2A7.73,7.73,0,0,1,82.33,462.39Z" fill="#bfb69d"/><path d="M82.33,476.33c0,2.23-1.57,3.13-3.5,2a7.75,7.75,0,0,1-3.5-6.07c0-2.23,1.57-3.13,3.5-2A7.75,7.75,0,0,1,82.33,476.33Z" fill="#bfb69d"/><path d="M94.82,372c0,2.23-1.56,3.14-3.5,2a7.73,7.73,0,0,1-3.5-6.06c0-2.23,1.57-3.14,3.5-2A7.72,7.72,0,0,1,94.82,372Z" fill="#bfb69d"/><path d="M94.82,386c0,2.23-1.56,3.14-3.5,2a7.75,7.75,0,0,1-3.5-6.06c0-2.23,1.57-3.14,3.5-2A7.71,7.71,0,0,1,94.82,386Z" fill="#bfb69d"/><path d="M94.82,399.92c0,2.23-1.56,3.13-3.5,2a7.75,7.75,0,0,1-3.5-6.06c0-2.24,1.57-3.14,3.5-2A7.73,7.73,0,0,1,94.82,399.92Z" fill="#bfb69d"/><path d="M94.82,413.85c0,2.24-1.56,3.14-3.5,2a7.73,7.73,0,0,1-3.5-6.06c0-2.23,1.57-3.13,3.5-2A7.72,7.72,0,0,1,94.82,413.85Z" fill="#bfb69d"/><path d="M94.82,427.79c0,2.23-1.56,3.14-3.5,2a7.75,7.75,0,0,1-3.5-6.06c0-2.23,1.57-3.14,3.5-2A7.71,7.71,0,0,1,94.82,427.79Z" fill="#bfb69d"/><path d="M94.82,441.73c0,2.23-1.57,3.13-3.5,2a7.75,7.75,0,0,1-3.5-6.06c0-2.24,1.57-3.14,3.5-2A7.73,7.73,0,0,1,94.82,441.73Z" fill="#bfb69d"/><path d="M94.82,455.66c0,2.24-1.57,3.14-3.5,2a7.77,7.77,0,0,1-3.5-6.07c0-2.23,1.57-3.13,3.5-2A7.75,7.75,0,0,1,94.82,455.66Z" fill="#bfb69d"/><path d="M94.82,469.6c0,2.23-1.57,3.14-3.5,2a7.73,7.73,0,0,1-3.5-6.06c0-2.23,1.57-3.14,3.5-2A7.73,7.73,0,0,1,94.82,469.6Z" fill="#bfb69d"/><path d="M94.82,483.54c0,2.23-1.57,3.13-3.5,2a7.75,7.75,0,0,1-3.5-6.06c0-2.24,1.57-3.14,3.5-2A7.73,7.73,0,0,1,94.82,483.54Z" fill="#bfb69d"/><path d="M107.32,379.25c0,2.24-1.57,3.14-3.51,2a7.75,7.75,0,0,1-3.5-6.07c0-2.23,1.57-3.13,3.5-2A7.73,7.73,0,0,1,107.32,379.25Z" fill="#bfb69d"/><path d="M107.32,393.19c0,2.23-1.57,3.14-3.51,2a7.73,7.73,0,0,1-3.5-6.06c0-2.23,1.57-3.14,3.5-2A7.73,7.73,0,0,1,107.32,393.19Z" fill="#bfb69d"/><path d="M107.31,407.13c0,2.23-1.56,3.14-3.5,2a7.75,7.75,0,0,1-3.5-6.06c0-2.23,1.57-3.14,3.5-2A7.71,7.71,0,0,1,107.31,407.13Z" fill="#bfb69d"/><path d="M107.31,421.07c0,2.23-1.56,3.13-3.5,2a7.75,7.75,0,0,1-3.5-6.07c0-2.23,1.57-3.13,3.5-2A7.73,7.73,0,0,1,107.31,421.07Z" fill="#bfb69d"/><path d="M107.31,435c0,2.23-1.56,3.14-3.5,2a7.73,7.73,0,0,1-3.5-6.06c0-2.23,1.57-3.14,3.5-2A7.72,7.72,0,0,1,107.31,435Z" fill="#bfb69d"/><path d="M107.31,448.94c0,2.23-1.56,3.14-3.5,2a7.75,7.75,0,0,1-3.5-6.06c0-2.23,1.57-3.14,3.5-2A7.71,7.71,0,0,1,107.31,448.94Z" fill="#bfb69d"/><path d="M107.31,462.88c0,2.23-1.56,3.13-3.5,2a7.75,7.75,0,0,1-3.5-6.06c0-2.24,1.57-3.14,3.5-2A7.73,7.73,0,0,1,107.31,462.88Z" fill="#bfb69d"/><path d="M107.31,476.81c0,2.24-1.56,3.14-3.5,2a7.73,7.73,0,0,1-3.5-6.06c0-2.23,1.57-3.14,3.5-2A7.72,7.72,0,0,1,107.31,476.81Z" fill="#bfb69d"/><path d="M107.31,490.75c0,2.23-1.56,3.14-3.5,2a7.75,7.75,0,0,1-3.5-6.06c0-2.23,1.57-3.14,3.5-2A7.71,7.71,0,0,1,107.31,490.75Z" fill="#bfb69d"/><polygon points="505.14 404.93 505.15 720.21 552.05 747.11 451.02 805.37 451.01 436.01 505.14 404.93" fill="#c2a7a7" style="mix-blend-mode:multiply"/><polygon points="1262.22 1276.37 650.03 1629.83 340.17 1451.18 952.36 1097.72 1262.22 1200.89 1262.22 1276.37" fill="#a6a08f"/><polygon points="1262.22 1200.89 650.03 1554.34 389.2 1403.75 1001.39 1050.29 1262.22 1200.89" fill="#ece8de"/><polygon points="946.76 1355.48 651.49 1525.96 651.49 1501.19 946.76 1330.71 946.76 1355.48" fill="#a6a08f"/><polygon points="968.91 1238.66 883.76 1287.82 883.76 1263.05 968.91 1213.88 968.91 1238.66" fill="#a6a08f"/><polygon points="1199.64 1209.48 1086.1 1275.04 1086.1 1250.26 1199.64 1184.71 1199.64 1209.48" fill="#a6a08f"/><polygon points="1001.39 1050.29 389.2 1403.75 340.17 1411.2 952.36 1057.74 1001.39 1050.29" fill="#f7f5ed"/><polygon points="340.17 1411.2 340.17 1451.18 650.03 1629.83 650.03 1554.34 389.2 1403.75 340.17 1411.2" fill="#bfb9a8"/><polygon points="946.76 1330.71 651.49 1501.19 460.55 1390.94 755.82 1220.46 946.76 1330.71" fill="#f7f5ed"/><polygon points="968.91 1213.88 883.76 1263.05 782.91 1204.82 868.06 1155.65 968.91 1213.88" fill="#f7f5ed"/><polygon points="1199.64 1184.71 1086.1 1250.26 895.16 1140.01 1008.69 1074.46 1199.64 1184.71" fill="#f7f5ed"/><polygon points="1002.24 1265.9 973.86 1249.51 945.47 1265.9 973.86 1282.29 945.47 1298.68 973.86 1315.06 1002.24 1298.68 1030.63 1282.29 1059.01 1265.9 1030.63 1249.51 1002.24 1265.9" fill="#f7f5ed"/><polygon points="460.55 1390.94 460.55 1415.72 651.49 1525.96 651.49 1501.19 460.55 1390.94" fill="#bfb9a8"/><polygon points="782.91 1204.82 782.91 1229.6 883.76 1287.82 883.76 1263.05 782.91 1204.82" fill="#bfb9a8"/><polygon points="895.16 1140.01 895.16 1164.79 1086.1 1275.04 1086.1 1250.26 895.16 1140.01" fill="#bfb9a8"/><polygon points="945.47 1265.9 945.47 1290.68 952.4 1294.68 973.86 1282.29 945.47 1265.9" fill="#bfb9a8"/><polygon points="945.47 1298.68 945.47 1323.45 973.86 1339.84 973.86 1315.06 945.47 1298.68" fill="#bfb9a8"/><polygon points="1059.01 1265.9 1059.01 1290.68 973.86 1339.84 973.86 1315.06 1059.01 1265.9" fill="#a6a08f"/><polygon points="1416.37 1089.54 1306.13 1153.19 1306.13 1105.9 1416.37 1042.25 1416.37 1089.54" fill="#a6a08f"/><polygon points="1416.37 1042.25 1306.13 1105.9 1211.77 1037.37 1146.49 1027.1 1256.73 963.45 1322.02 973.72 1416.37 1042.25" fill="#ded9cc"/><polygon points="1146.49 1027.1 1146.49 1061.08 1306.13 1153.19 1306.13 1105.9 1211.77 1037.37 1146.49 1027.1" fill="#bfb9a8"/><polygon points="1266.89 1005.55 1201.61 995.27 1146.49 1027.1 1211.77 1037.37 1266.89 1005.55" fill="#ece8de"/><polygon points="1322.23 973.72 1256.95 963.45 1201.83 995.27 1267.11 1005.55 1322.23 973.72" fill="#f7f5ed"/><polygon points="808.99 913.26 830.09 915.15 830.09 943.28 808.99 969.53 787.89 967.64 787.89 939.51 808.99 913.26" fill="#8c8673"/><polygon points="808.99 923.54 822.39 924.73 822.39 942.59 808.99 959.26 795.6 958.06 795.6 940.2 808.99 923.54" fill="#2c3945"/><polygon points="800.05 951.06 813.44 934.39 813.44 923.93 822.39 924.73 822.39 942.59 808.99 959.26 795.6 958.06 795.6 950.66 800.05 951.06" fill="#5c6d7f"/><polygon points="813.44 934.39 822.39 942.59 822.39 924.73 813.44 923.93 813.44 934.39" fill="#394754"/><polygon points="800.05 951.06 808.99 959.26 822.39 942.59 813.44 934.39 800.05 951.06" fill="#4e5e6e"/><polygon points="822.39 942.59 806.85 942.59 795.6 940.2 808.99 923.54 822.39 924.73 822.39 942.59" fill="#c2a7a7" style="mix-blend-mode:multiply"/><polygon points="752.41 946.21 773.51 948.1 773.51 976.23 752.41 1002.48 731.31 1000.59 731.31 972.46 752.41 946.21" fill="#8c8673"/><polygon points="752.41 956.49 765.8 957.68 765.8 975.54 752.41 992.21 739.01 991.01 739.01 973.15 752.41 956.49" fill="#2c3945"/><polygon points="743.46 984.01 756.86 967.34 756.86 956.88 765.8 957.68 765.8 975.54 752.41 992.21 739.01 991.01 739.01 983.61 743.46 984.01" fill="#5c6d7f"/><polygon points="756.86 967.34 765.8 975.54 765.8 957.68 756.86 956.88 756.86 967.34" fill="#394754"/><polygon points="743.46 984.01 752.41 992.21 765.8 975.54 756.86 967.34 743.46 984.01" fill="#4e5e6e"/><polygon points="765.8 975.54 750.27 975.54 739.01 973.15 752.41 956.49 765.8 957.68 765.8 975.54" fill="#c2a7a7" style="mix-blend-mode:multiply"/><polygon points="703.76 942.05 850.46 857.35 850.46 847.96 703.76 932.66 703.76 942.05" fill="#2c3945"/><polygon points="468 889.28 481.32 936.54 437.22 962 557.29 975.54 909.74 772.05 922.3 723.64 803.41 655 778.41 669.46 792.07 677.35 792.07 702.17 468 889.28" fill="#c2a7a7" style="mix-blend-mode:multiply"/><polygon points="404.87 885.34 468 889.28 792.07 702.17 792.07 677.35 778.41 669.46 404.87 885.34" fill="#c2a7a7" style="mix-blend-mode:multiply"/><polygon points="841.85 156.82 404.86 409.38 404.87 885.34 841.85 632.79 841.85 156.82" fill="#c2a7a7" style="mix-blend-mode:multiply"/><polygon points="922.3 933.54 909.74 981.92 481.32 1229.27 481.31 1019.38 909.74 772.05 922.3 723.64 922.3 933.54" fill="#c2a7a7" style="mix-blend-mode:multiply"/><polygon points="651.49 1525.96 699.18 1525.96 650.03 1554.34 650.03 1629.83 1262.22 1276.37 1262.22 1200.89 1239.71 1213.88 1199.64 1190.97 1199.64 1184.71 1086.1 1250.26 1086.1 1275.04 1133.79 1275.04 1108.41 1289.69 1059.01 1289.69 1059.01 1265.9 973.86 1315.06 973.86 1339.84 946.76 1339.84 946.76 1330.71 651.49 1501.19 651.49 1525.96" fill="#c2a7a7" style="mix-blend-mode:multiply"/></g></g></g></svg>